<?xml version="1.0" standalone="no"?>
<!DOCTYPE svg PUBLIC "-//W3C//DTD SVG 20010904//EN"
 "http://www.w3.org/TR/2001/REC-SVG-20010904/DTD/svg10.dtd">
<svg version="1.0" xmlns="http://www.w3.org/2000/svg"
 width="460.000000pt" height="460.000000pt" viewBox="0 0 460.000000 460.000000"
 preserveAspectRatio="xMidYMid meet">
<metadata>
Created by potrace 1.14, written by Peter Selinger 2001-2017
</metadata>
<g transform="translate(0.000000,460.000000) scale(0.100000,-0.100000)"
fill="#000000" stroke="none">
<path d="M581 4015 c-4 -5 -7 -70 -7 -142 1 -112 -1 -133 -14 -134 -8 -1 -70
-1 -137 -1 -80 1 -125 -3 -129 -10 -4 -7 -7 -72 -6 -145 l1 -133 -144 0 -145
0 0 -430 0 -430 53 -1 c28 0 94 0 144 0 l93 0 -1 -127 c-1 -70 -1 -135 0 -144
1 -16 15 -18 144 -18 l142 0 0 -142 0 -143 138 -1 c75 0 140 -4 144 -7 3 -4 7
-69 7 -144 l1 -138 143 0 142 0 0 -142 c0 -107 3 -143 13 -144 6 0 71 -1 142
-2 l130 -2 2 -125 c0 -69 2 -133 2 -142 1 -16 15 -18 144 -18 l143 0 -1 -144
-1 -143 138 0 c76 0 141 -3 144 -6 3 -3 6 -66 6 -141 0 -94 3 -136 11 -138 7
-2 136 -4 287 -4 l275 1 1 138 c1 76 4 141 8 144 3 3 67 6 143 7 l138 1 0 143
-1 142 143 0 c107 0 143 3 144 13 0 6 1 71 1 143 l1 131 126 1 c69 0 134 0
144 1 15 1 17 15 17 144 l0 142 143 0 142 0 1 138 c1 76 4 140 7 143 3 4 68 7
144 8 l138 1 0 143 0 142 142 0 c141 0 143 0 144 23 0 12 1 77 1 145 l0 122
122 -1 c66 0 131 0 144 0 l22 1 0 430 0 430 -145 0 -146 0 2 134 c0 74 -2 139
-5 145 -3 5 -59 9 -124 9 -64 0 -126 1 -137 1 -20 1 -20 7 -20 137 0 83 -3
138 -10 142 -17 11 -3426 8 -3434 -3z"/>
</g>
</svg>
